<svg xmlns="http://www.w3.org/2000/svg" viewBox="0 0 22.81 22.8"><g id="ba39f121-6b08-4c9c-a440-4c7e3763fd61" data-name="Слой 2"><g id="fe1978a2-3754-493c-8621-166fb369bdf8" data-name="Слой 1"><path d="M12.07,22.8H10.73a.86.86,0,0,0-.17,0,10.59,10.59,0,0,1-4-1.05A11.25,11.25,0,0,1,.18,13.39C.1,13,.06,12.51,0,12.07V10.73c0-.06,0-.12,0-.19a10.55,10.55,0,0,1,1.3-4.49,11.19,11.19,0,0,1,9.58-6,10.43,10.43,0,0,1,5.81,1.31,11.19,11.19,0,0,1,6.06,9.59,10.68,10.68,0,0,1-1.32,5.83,11.24,11.24,0,0,1-8.08,5.87C13,22.71,12.51,22.74,12.07,22.8Zm-.66-3.56c.34-.46.67-.89,1-1.33a36,36,0,0,0,3.71-6.09,6.26,6.26,0,0,0,.55-4.23,5.12,5.12,0,0,0-1.93-3,5.52,5.52,0,0,0-3.38-1,5.47,5.47,0,0,0-3.16.91,4.85,4.85,0,0,0-2,2.95A5.53,5.53,0,0,0,6.08,10a12.94,12.94,0,0,0,1.34,3.26,44.86,44.86,0,0,0,3.64,5.51C11.17,18.93,11.27,19.07,11.41,19.24Z" style="fill:#de912f"/><path d="M11.39,16.88c-.48-.7-.94-1.36-1.38-2a26.85,26.85,0,0,1-2.23-4.12,4.42,4.42,0,0,1,0-3.63,3.41,3.41,0,0,1,2.86-2,4.78,4.78,0,0,1,2.43.25,3.49,3.49,0,0,1,2.18,2.65A4.62,4.62,0,0,1,15,10.87a31.32,31.32,0,0,1-2.91,5.06C11.85,16.24,11.63,16.54,11.39,16.88Zm1.76-7.67A1.76,1.76,0,1,0,11.39,11,1.76,1.76,0,0,0,13.15,9.21Z" style="fill:#de912f"/></g></g></svg>