<svg xmlns="http://www.w3.org/2000/svg" viewBox="0 0 35 26.51"><g id="b8ca36f4-d1da-4e48-b558-9453d284a3c6" data-name="Слой 2"><g id="f3f011d4-7c61-44e0-aa3f-0125f6f8bef2" data-name="Слой 1"><path d="M22.89,11.69,15.15,7.46a1.38,1.38,0,0,0-1.4,0,1.41,1.41,0,0,0-.7,1.22v8.39a1.41,1.41,0,0,0,.69,1.22,1.44,1.44,0,0,0,1.41,0l7.73-4.15a1.42,1.42,0,0,0,0-2.5ZM15.1,16V9.77l5.78,3.16Z" style="fill:#de912f"/><path d="M34.74,6.26v0A8,8,0,0,0,33.2,2.18,5.72,5.72,0,0,0,29.43.41l-.18,0h-.06C24.56.05,17.58,0,17.51,0h0c-.07,0-7,.05-11.72.38H5.71l-.17,0A5.56,5.56,0,0,0,1.79,2.23a8.47,8.47,0,0,0-1.53,4v0C.25,6.37,0,9.16,0,12v2.62c0,2.8.25,5.59.26,5.71h0a7.84,7.84,0,0,0,1.54,4,5.78,5.78,0,0,0,3.89,1.75l.35,0h.08c2.68.26,11.05.38,11.41.39h0c.07,0,7.06-.05,11.68-.38h.06l.2,0a5.43,5.43,0,0,0,3.72-1.78,8.44,8.44,0,0,0,1.53-4v0c0-.11.26-2.9.26-5.7V12C35,9.16,34.75,6.37,34.74,6.26ZM33,14.59c0,2.59-.23,5.26-.25,5.5a6.53,6.53,0,0,1-1,2.85,3.39,3.39,0,0,1-2.42,1.12l-.21,0c-4.48.33-11.2.38-11.51.38S9,24.33,6.36,24.09c-.14,0-.28,0-.43-.06A3.89,3.89,0,0,1,3.3,22.94v0a5.83,5.83,0,0,1-1-2.81c0-.18-.25-2.89-.25-5.51V12c0-2.59.23-5.26.25-5.51a6.32,6.32,0,0,1,1-2.84A3.53,3.53,0,0,1,5.78,2.45l.16,0c4.54-.33,11.32-.38,11.56-.38s7,.05,11.51.38l.18,0a3.65,3.65,0,0,1,2.52,1.14h0a6,6,0,0,1,1,2.86c0,.17.25,2.88.25,5.52Z" style="fill:#de912f"/></g></g></svg>