<svg xmlns="http://www.w3.org/2000/svg" viewBox="0 0 224.5 77.91"><g id="fe20bd72-57e5-40c1-99fe-31941d4e887b" data-name="Слой 2"><g id="a912f758-f051-40eb-abee-184d10ed893c" data-name="Слой 1"><path d="M34.61,63.41l6.87-5.08a.57.57,0,0,0,.21-.63l-2.63-8.22a.57.57,0,0,0-.53-.39H30a.56.56,0,0,0-.54.39l-2.63,8.21,0,.2a.6.6,0,0,0,.23.44l6.86,5.08a.59.59,0,0,0,.67,0" style="fill:#264369"/><path d="M36.07,67.53l0,.17,3.14,9.8a.56.56,0,0,0,.54.41H49.93a.57.57,0,0,0,.55-.4l3.13-9.81a.59.59,0,0,0-.2-.66L45.2,61a.59.59,0,0,0-.68,0L36.31,67a.59.59,0,0,0-.24.49" style="fill:#264369"/><path d="M23.79,37.92H15.3a.56.56,0,0,0-.53.39l-2.63,8.22,0,.19a.58.58,0,0,0,.23.44l6.88,5.08a.53.53,0,0,0,.65,0l6.87-5.07a.59.59,0,0,0,.21-.64l-2.63-8.21a.57.57,0,0,0-.53-.4" style="fill:#264369"/><path d="M9.43,50.35a.53.53,0,0,0-.65,0L1,56.13a.57.57,0,0,0-.23.47l0,.16,3,9.35a.57.57,0,0,0,.53.39h9.67a.55.55,0,0,0,.53-.39l3-9.35a.56.56,0,0,0-.2-.63Z" style="fill:#264369"/><path d="M18,29.15a.58.58,0,0,0,.23.44l6.87,5.08a.54.54,0,0,0,.66,0l6.87-5.07a.58.58,0,0,0,.2-.64l-2.62-8.21a.57.57,0,0,0-.54-.4H21.14a.56.56,0,0,0-.53.4L18,29Z" style="fill:#264369"/><path d="M8.71,12.5a.54.54,0,0,0-.65,0L.23,18.28a.56.56,0,0,0-.23.47l0,.16,3,9.35a.55.55,0,0,0,.52.39h9.67a.56.56,0,0,0,.53-.38l3-9.36a.55.55,0,0,0-.2-.63Z" style="fill:#264369"/><path d="M36.56,29.82l6.88,5.08a.56.56,0,0,0,.65,0L51,29.82a.56.56,0,0,0,.2-.64L48.55,21a.57.57,0,0,0-.53-.39h-8.5A.55.55,0,0,0,39,21l-2.63,8.21,0,.2a.6.6,0,0,0,.23.44" style="fill:#264369"/><path d="M43.38.11,35.55,5.89a.56.56,0,0,0-.23.47l0,.16,3,9.35a.55.55,0,0,0,.52.39h9.68a.54.54,0,0,0,.52-.39l3-9.35a.58.58,0,0,0-.2-.63L44,.11a.54.54,0,0,0-.65,0" style="fill:#264369"/><path d="M48.72,52.74a.56.56,0,0,0,.66,0l6.88-5.08a.58.58,0,0,0,.2-.63l-2.63-8.22a.55.55,0,0,0-.53-.39H44.81a.56.56,0,0,0-.53.39L41.65,47l0,.2a.55.55,0,0,0,.23.44Z" style="fill:#264369"/><path d="M61.18,46.59h9.68a.56.56,0,0,0,.53-.38l3-9.36a.58.58,0,0,0-.21-.63l-7.82-5.78a.54.54,0,0,0-.65,0l-7.83,5.78a.55.55,0,0,0-.22.47l0,.16,3,9.36a.54.54,0,0,0,.52.38" style="fill:#264369"/><path d="M87,44.12a3.21,3.21,0,0,0,1.26.28,1.08,1.08,0,0,0,1.22-1,4,4,0,0,0-.56-1.58l-3.53-7.56h2.92L91,40.65l2.67-6.44h2.82l-4.06,9c-1.11,2.5-2.06,3.45-4,3.45A4.24,4.24,0,0,1,87,46.39Z" style="fill:#4e4e4e"/><path d="M107.62,37.35v5.74a2.7,2.7,0,0,0,2.69-2.91,2.56,2.56,0,0,0-2.69-2.83m-2.6,0a2.54,2.54,0,0,0-2.67,2.83A2.69,2.69,0,0,0,105,43.09Zm2.6,7.75v1.34H105V45.1c-3.1-.12-5.23-1.84-5.23-4.92s2.08-4.67,5.23-4.77v-1.2h2.6v1.2c3.15.1,5.23,1.82,5.23,4.77s-2.14,4.8-5.23,4.92" style="fill:#4e4e4e"/><path d="M122,37.19l-1.61,4.56h3.2ZM128,46.44h-2.77l-1-2.73h-4.48l-1,2.73h-2.71l4.59-12.25h2.72Z" style="fill:#4e4e4e"/><path d="M137.62,40.72h-2.79v3.53h2.81c1.27,0,2.05-.47,2.05-1.78s-.88-1.75-2.07-1.75M138,38.6c2.42,0,4.28,1.24,4.28,3.91s-1.81,3.93-4.41,3.93h-5.64V34.21h8.93v2.21h-6.31V38.6Z" style="fill:#4e4e4e"/><path d="M147.68,44.12a3.27,3.27,0,0,0,1.27.28,1.08,1.08,0,0,0,1.22-1,4,4,0,0,0-.56-1.58l-3.54-7.56H149l2.72,6.44,2.67-6.44h2.83l-4.06,9c-1.12,2.5-2.07,3.45-4,3.45a4.3,4.3,0,0,1-1.47-.27Z" style="fill:#4e4e4e"/><path d="M164.08,39.93h2.35c1.19,0,2.07-.4,2.07-1.76s-.88-1.77-2.05-1.77h-2.37Zm2.57-5.72c2.61,0,4.41,1.23,4.41,3.93s-1.85,3.9-4.27,3.9h-2.71v4.4h-2.62V34.21Z" style="fill:#4e4e4e"/><polygon points="175.6 34.2 179.37 34.2 182.18 42.61 184.92 34.2 188.6 34.2 188.6 46.44 186.12 46.44 186.12 37.75 183.16 46.44 181.11 46.44 178.12 37.83 178.12 46.44 175.6 46.44 175.6 34.2" style="fill:#4e4e4e"/><path d="M198.76,37.19l-1.61,4.56h3.2Zm6,9.25h-2.77L201,43.71h-4.48l-1,2.73h-2.71l4.59-12.25h2.72Z" style="fill:#4e4e4e"/><polygon points="208.57 34.2 211.21 34.2 211.21 44.16 215.21 44.16 215.21 34.2 217.85 34.2 217.85 44.16 221.86 44.16 221.86 34.2 224.5 34.2 224.5 46.44 208.57 46.44 208.57 34.2" style="fill:#4e4e4e"/></g></g></svg>