<svg xmlns="http://www.w3.org/2000/svg" viewBox="0 0 74.41 77.91"><g id="Слой_2" data-name="Слой 2"><g id="Слой_1-2" data-name="Слой 1"><path d="M34.61,63.41l6.87-5.08a.57.57,0,0,0,.21-.63l-2.63-8.22a.57.57,0,0,0-.53-.39H30a.56.56,0,0,0-.54.39l-2.63,8.21,0,.2a.6.6,0,0,0,.23.44l6.86,5.08a.59.59,0,0,0,.67,0" style="fill:#264369"/><path d="M36.07,67.53l0,.17,3.14,9.8a.56.56,0,0,0,.54.41H49.93a.57.57,0,0,0,.55-.4l3.13-9.81a.59.59,0,0,0-.2-.66L45.2,61a.59.59,0,0,0-.68,0L36.31,67a.59.59,0,0,0-.24.49" style="fill:#264369"/><path d="M23.79,37.92H15.3a.56.56,0,0,0-.53.39l-2.63,8.22,0,.19a.58.58,0,0,0,.23.44l6.88,5.08a.53.53,0,0,0,.65,0l6.87-5.07a.59.59,0,0,0,.21-.64l-2.63-8.21a.57.57,0,0,0-.53-.4" style="fill:#264369"/><path d="M9.43,50.35a.53.53,0,0,0-.65,0L1,56.13a.57.57,0,0,0-.23.47l0,.16,3,9.35a.57.57,0,0,0,.53.39h9.67a.55.55,0,0,0,.53-.39l3-9.35a.56.56,0,0,0-.2-.63Z" style="fill:#264369"/><path d="M18,29.15a.58.58,0,0,0,.23.44l6.87,5.08a.54.54,0,0,0,.66,0l6.87-5.07a.58.58,0,0,0,.2-.64l-2.62-8.21a.57.57,0,0,0-.54-.4H21.14a.56.56,0,0,0-.53.4L18,29Z" style="fill:#264369"/><path d="M8.71,12.5a.54.54,0,0,0-.65,0L.23,18.28a.56.56,0,0,0-.23.47l0,.16,3,9.35a.55.55,0,0,0,.52.39h9.67a.56.56,0,0,0,.53-.38l3-9.36a.55.55,0,0,0-.2-.63Z" style="fill:#264369"/><path d="M36.56,29.82l6.88,5.08a.56.56,0,0,0,.65,0L51,29.82a.56.56,0,0,0,.2-.64L48.55,21a.57.57,0,0,0-.53-.39h-8.5A.55.55,0,0,0,39,21l-2.63,8.21,0,.2a.6.6,0,0,0,.23.44" style="fill:#264369"/><path d="M43.38.11,35.55,5.89a.56.56,0,0,0-.23.47l0,.16,3,9.35a.55.55,0,0,0,.52.39h9.68a.54.54,0,0,0,.52-.39l3-9.35a.58.58,0,0,0-.2-.63L44,.11a.54.54,0,0,0-.65,0" style="fill:#264369"/><path d="M48.72,52.74a.56.56,0,0,0,.66,0l6.88-5.08a.58.58,0,0,0,.2-.63l-2.63-8.22a.55.55,0,0,0-.53-.39H44.81a.56.56,0,0,0-.53.39L41.65,47l0,.2a.55.55,0,0,0,.23.44Z" style="fill:#264369"/><path d="M61.18,46.59h9.68a.56.56,0,0,0,.53-.38l3-9.36a.58.58,0,0,0-.21-.63l-7.82-5.78a.54.54,0,0,0-.65,0l-7.83,5.78a.55.55,0,0,0-.22.47l0,.16,3,9.36a.54.54,0,0,0,.52.38" style="fill:#264369"/></g></g></svg>