<svg xmlns="http://www.w3.org/2000/svg" width="164.71" height="67.34" viewBox="0 0 164.71 67.34"><g id="b605f1ab-61ea-4255-9225-120263a024c7" data-name="Слой 2"><g id="bd4f53ea-47fa-4cfa-be33-4b6b170d14de" data-name="Слой 1"><path d="M86.81.28A37.18,37.18,0,0,1,99.72,2.62a35.41,35.41,0,0,1,11,6.94c.61.56.52,1,0,1.51q-5.22,5.2-10.44,10.44c-.61.61-1.25,1.18-1.84,1.8s-.78.52-1.25,0a13.32,13.32,0,0,0-7.6-4.06,14.17,14.17,0,0,0-10.07,2,13.43,13.43,0,0,0-5.43,6.18,13.82,13.82,0,0,0,.8,13.25,14.28,14.28,0,0,0,8.76,6.45c4.08,1.12,7.71.1,11.17-2A15.12,15.12,0,0,0,97,43.48c.54-.47.86-.14,1.21.2l3.93,3.85,8.45,8.39c1.19,1.18,1.19,1.17-.1,2.32a34.9,34.9,0,0,1-13.31,7.54A35.43,35.43,0,0,1,84.58,67a28.48,28.48,0,0,1-8-1.64,27.9,27.9,0,0,1-9.21-5c-1.6-1.44-3.23-2.85-4.78-4.34a20.85,20.85,0,0,1-4.51-6.42,62.07,62.07,0,0,1-3-7.39,23.78,23.78,0,0,1-.85-5.52,42.72,42.72,0,0,1,0-6.4,26.31,26.31,0,0,1,2.54-9.68A56.63,56.63,0,0,1,60,14.77a31.78,31.78,0,0,1,7.27-7.6A33.61,33.61,0,0,1,81.71.83C83.61.47,85.57.41,86.81.28Z" style="fill:#fff"/><path d="M57.61,57.63A68.37,68.37,0,0,1,51.83,62a36.65,36.65,0,0,1-9.06,3.9,37.22,37.22,0,0,1-11.16,1.08,31.44,31.44,0,0,1-12.36-3.16,31.5,31.5,0,0,1-9.18-6.39A33,33,0,0,1,1.41,42.94,31.59,31.59,0,0,1,.25,29.87a32.26,32.26,0,0,1,2.21-8.82A36.63,36.63,0,0,1,8.77,11,33.37,33.37,0,0,1,16.17,5,32.12,32.12,0,0,1,27.41.68,34.33,34.33,0,0,1,40.23.74a34.61,34.61,0,0,1,8.57,3,35.61,35.61,0,0,1,7.5,5.14c1.16,1,1.11,1.12,0,2.21-2.1,2.06-4.17,4.16-6.27,6.23-1.87,1.86-3.78,3.69-5.64,5.57-.49.51-.76.5-1.29,0a13.84,13.84,0,0,0-12.42-3.87,14.35,14.35,0,0,0-9.5,6.29c-.43.61-.93,1.16-1.39,1.73a.36.36,0,0,0-.07.17c-.9,4.3-1.54,8.65.85,12.66a17,17,0,0,0,3.91,4.45,13.64,13.64,0,0,0,9.34,3,14.73,14.73,0,0,0,8.06-3.11c1.4-1,1.37-1,2.58.14,3.14,3.06,6.26,6.13,9.41,9.18,1.25,1.21,2.55,2.38,3.82,3.56Z" style="fill:#fff"/><path d="M164.62,67.34H162q-12.92,0-25.83,0a2.5,2.5,0,0,1-1.58-.66c-4.65-4.6-9.26-9.25-13.89-13.87-3.78-3.77-7.58-7.51-11.34-11.28-1.91-1.91-3.74-3.89-5.63-5.82a19,19,0,0,0-1.63-1.47c-.48-.38-.54-.73-.09-1.17q4.62-4.55,9.23-9.1,2.55-2.5,5.07-5c2.54-2.53,5.06-5.08,7.59-7.62,3.21-3.21,6.44-6.41,9.64-9.62a4.36,4.36,0,0,1,3.52-1.6c4,.14,8.09,0,12.14,0L161.79,0h2.88l-2.76,2.79L156.8,7.88,148.73,16c-3.34,3.36-6.66,6.72-10,10.07-2.17,2.18-4.37,4.33-6.55,6.51-.88.88-.86,1.26,0,2.13,1.75,1.74,3.48,3.51,5.25,5.24,2,1.95,4,3.83,6,5.8,1.77,1.76,3.44,3.62,5.21,5.39s3.56,3.43,5.31,5.17c1.53,1.51,3,3.09,4.51,4.62,1,1,2,1.91,3,2.88s2.14,2.14,3.2,3.22Z" style="fill:#fff"/></g></g></svg>