<svg xmlns="http://www.w3.org/2000/svg" width="177.77" height="76.62" viewBox="0 0 177.77 76.62"><g id="ad4cbc74-d47e-4176-b048-48d3877cbf5b" data-name="Слой 2"><g id="b03964da-8978-4dfc-9f9f-ff43f6248a56" data-name="Слой 1"><g id="b26f9c05-041a-49b4-976b-b549b70ce028" data-name="Слой_1"><path d="M34.86,66.82v9.5a.29.29,0,0,0,.31.3,27.56,27.56,0,0,0,6.46-1.23.29.29,0,0,0,.2-.28V51.8a.31.31,0,0,0-.26-.3c-2.08-.23-4.23-.38-6.41-.45a.3.3,0,0,0-.3.3v8.4H31.13v-8.4a.31.31,0,0,0-.3-.3q-3.28.08-6.42.44a.29.29,0,0,0-.26.3V75.16a.29.29,0,0,0,.21.29,29.29,29.29,0,0,0,6.46,1.16.29.29,0,0,0,.31-.3V66.79h3.73Z" style="fill:#fff;fill-rule:evenodd"/><path d="M22.17,51.8a65.67,65.67,0,0,0-7.66,1.54.32.32,0,0,0-.19.17l-3,6.26h-.49V54.89a.31.31,0,0,0-.4-.29,43.55,43.55,0,0,0-5,2.1l-.9.47a.3.3,0,0,0-.12.39A41.6,41.6,0,0,0,12.78,68.7a.28.28,0,0,0,.46-.08L15.05,65h.47v5.86a.27.27,0,0,0,.13.24,28.12,28.12,0,0,0,6.45,3.59.3.3,0,0,0,.41-.27V52.1A.31.31,0,0,0,22.17,51.8Z" style="fill:#fff;fill-rule:evenodd"/><path d="M58.78,56.37a32.17,32.17,0,0,0-4.62-2.32.31.31,0,0,0-.37.15c-.52,1.08-2.71,5.57-2.71,5.57h-.49l-.05-6.43a.28.28,0,0,0-.21-.28q-3.11-.77-6.42-1.25a.3.3,0,0,0-.34.3V74.29a.3.3,0,0,0,.41.27,29.66,29.66,0,0,0,6.45-3.67.29.29,0,0,0,.13-.25V66.82A4.57,4.57,0,0,1,53.94,68h0a40.62,40.62,0,0,0,4.44-5.15.28.28,0,0,0,0-.39,8.68,8.68,0,0,0-1.58-1.13l2.15-4.51a.28.28,0,0,0-.12-.38Z" style="fill:#fff;fill-rule:evenodd"/><path d="M44.51,2.66a.3.3,0,0,0-.06-.52A29.23,29.23,0,0,0,36.59,0c-2.84,9.23-2.85,20.17-3.25,48,.26,0,.53,0,.79,0C35,26.47,35.29,9,44.5,2.66Z" style="fill:#fff;fill-rule:evenodd"/><path d="M39.5,27.35c3.38-10.24,8.86-15.29,17-15.64a.3.3,0,0,0,.22-.49,35.47,35.47,0,0,0-6.64-6.05C42.28,7.86,38.82,14.58,36.9,26.83A203.14,203.14,0,0,0,35,48.05l.78,0a95.47,95.47,0,0,1,3.78-20.74Z" style="fill:#fff;fill-rule:evenodd"/><path d="M41.19,35.4c6.27-12.13,17.26-13.76,23.36-7.78a.3.3,0,0,0,.49-.29,41.15,41.15,0,0,0-4.42-10.81c-14-3.84-22.47,12.12-24.1,31.59.26,0,.53,0,.79,0a34.67,34.67,0,0,1,3.88-12.75Z" style="fill:#fff;fill-rule:evenodd"/><path d="M65.7,34c-5.27-6.25-15.13-7.83-21.89.74A29,29,0,0,0,38.09,48.2c.28,0,.55,0,.81,0,1.42-5.9,5.1-9,8.56-10,8-2.41,16,3.39,16.72,10.17,0,.29.5.24.56,0A44.65,44.65,0,0,0,65.9,38.2,41.86,41.86,0,0,0,65.7,34Z" style="fill:#fff;fill-rule:evenodd"/><path d="M29.31,0a29.43,29.43,0,0,0-7.86,2.14.3.3,0,0,0-.06.52C30.6,9,30.87,26.47,31.76,48.05l.79,0c-.4-27.86-.41-38.81-3.25-48Z" style="fill:#fff;fill-rule:evenodd"/><path d="M29,26.84c-1.92-12.24-5.38-19-13.14-21.65a33.87,33.87,0,0,0-6.64,6.05.3.3,0,0,0,.22.49c8.09.33,13.57,5.39,17,15.63A96,96,0,0,1,30.2,48.1c.26,0,.52,0,.78,0A202.92,202.92,0,0,0,29,26.86Z" style="fill:#fff;fill-rule:evenodd"/><path d="M5.28,16.52A41,41,0,0,0,.86,27.33a.3.3,0,0,0,.49.29c6.1-6,17.1-4.35,23.36,7.78a34.73,34.73,0,0,1,3.88,12.75l.79,0C27.74,28.66,19.25,12.7,5.28,16.53Z" style="fill:#fff;fill-rule:evenodd"/><path d="M22.09,34.72C15.33,26.15,5.47,27.73.2,34c-.13,1.4-.2,2.8-.2,4.22A44.58,44.58,0,0,0,1.16,48.32c.07.29.52.33.56,0,.94-6.69,8.14-12.3,16.73-10.17,3.49.86,7.12,4.15,8.56,10l.8,0A29.1,29.1,0,0,0,22.09,34.72Z" style="fill:#fff;fill-rule:evenodd"/></g><path d="M82.17,8.22v5.56c0,2.09,0,3.82-.16,5.58l0,0c.67-1.37,1.49-2.8,2.45-4.37l4.27-6.79h1.7v13.2H88.86V15.8c0-2.14,0-3.71.16-5.37l-.06,0a37.94,37.94,0,0,1-2.45,4.45l-4.13,6.56H80.56V8.22Z" style="fill:#fff"/><path d="M93.44,8.37a20.72,20.72,0,0,1,3.27-.25,5.48,5.48,0,0,1,3.71,1.09A3.58,3.58,0,0,1,101.57,12a3.88,3.88,0,0,1-1,2.82,5.46,5.46,0,0,1-4,1.45,5.73,5.73,0,0,1-1.37-.12v5.29H93.44Zm1.71,6.37a5.63,5.63,0,0,0,1.41.13c2,0,3.31-1,3.31-2.82s-1.24-2.58-3.12-2.58a7,7,0,0,0-1.6.14Z" style="fill:#fff"/><path d="M105.54,8.22v5.85h.53l4.53-5.85h2.05l-5,6c2.17.29,3,1.62,3.7,3.4a34.07,34.07,0,0,0,1.45,3.75H111a24.38,24.38,0,0,1-1.2-3.12c-.6-1.74-1.44-2.94-3.68-2.94h-.55v6.06h-1.68V8.22Z" style="fill:#fff"/><path d="M115.33,8.22,118,13.84c.33.78.64,1.54,1,2.33h0c.23-.69.49-1.45.82-2.39l2.06-5.56h1.8L120.88,15a25.8,25.8,0,0,1-2.47,5,3.74,3.74,0,0,1-3,1.62,2.91,2.91,0,0,1-1-.12l.18-1.39a2.36,2.36,0,0,0,.63.06c1.37,0,2.17-1.33,2.58-2.27a.78.78,0,0,0-.06-.8L113.4,8.22Z" style="fill:#fff"/><path d="M128.37,9.67h-4V8.22h9.77V9.67h-4V21.42h-1.73Z" style="fill:#fff"/><path d="M144.14,21a8.36,8.36,0,0,1-3.49.63c-3.72,0-6.52-2.35-6.52-6.68A6.57,6.57,0,0,1,141,8a7,7,0,0,1,3.14.59L143.75,10a6.29,6.29,0,0,0-2.67-.55c-3.09,0-5.15,2-5.15,5.44,0,3.24,1.86,5.31,5.07,5.31a6.67,6.67,0,0,0,2.78-.55Z" style="fill:#fff"/><path d="M148,8.22v5.85h.53L153,8.22h2.05l-5,6c2.17.29,3,1.62,3.7,3.4a34.07,34.07,0,0,0,1.45,3.75h-1.84a24.38,24.38,0,0,1-1.2-3.12c-.6-1.74-1.45-2.94-3.68-2.94H148v6.06h-1.68V8.22Z" style="fill:#fff"/><path d="M159.11,17.26l-1.37,4.16H156l4.48-13.2h2.06L167,21.42H165.2l-1.41-4.16Zm4.33-1.33-1.29-3.8c-.29-.86-.49-1.64-.69-2.41h0c-.19.79-.41,1.59-.66,2.39l-1.29,3.82Z" style="fill:#fff"/><path d="M167.77,21.42a10.3,10.3,0,0,0,.53-1.2c.56-1.51.92-3.35,2-4.42a2.71,2.71,0,0,1,1.1-.67v-.06a3.27,3.27,0,0,1-2.92-3.25,3.32,3.32,0,0,1,1.22-2.68,6,6,0,0,1,3.78-1,17.45,17.45,0,0,1,3.15.27v13h-1.7V15.7h-1.26a2.5,2.5,0,0,0-1.9.64c-.9.92-1.27,2.86-1.74,4.12-.14.33-.24.6-.43,1Zm7.15-11.83a8,8,0,0,0-1.61-.16c-1.68,0-3.11.65-3.11,2.47,0,1.58,1.41,2.51,3.27,2.51.56,0,1.11,0,1.45,0Z" style="fill:#fff"/><path d="M82.27,31.71v5.52h6.38V31.71h1.72v13.2H88.65V38.72H82.27v6.19H80.56V31.71Z" style="fill:#fff"/><path d="M100.16,38.72H95v4.76h5.72v1.43H93.33V31.71h7.13v1.43H95v4.17h5.13Z" style="fill:#fff"/><path d="M109.4,31.18v1.18c2.78.12,5.56,1.8,5.56,6s-2.78,5.74-5.58,5.9v1.23h-1.64V44.21c-2.76-.18-5.56-1.65-5.56-5.82a5.63,5.63,0,0,1,5.6-6V31.18Zm-1.64,2.41c-1.73.1-3.82,1.29-3.82,4.72,0,3.15,1.88,4.49,3.82,4.68Zm1.62,9.4c1.9-.15,3.82-1.43,3.82-4.7s-1.92-4.6-3.82-4.7Z" style="fill:#fff"/><path d="M119.25,33.16h-4V31.71H125v1.45h-4V44.91h-1.72Z" style="fill:#fff"/><path d="M125.18,44.91a8.19,8.19,0,0,0,.53-1.19c.57-1.51.92-3.35,2-4.43a2.56,2.56,0,0,1,1.1-.66v-.06a3.27,3.27,0,0,1-2.92-3.25,3.38,3.38,0,0,1,1.21-2.69,6,6,0,0,1,3.78-1,16.46,16.46,0,0,1,3.15.28v13h-1.7V39.19h-1.25a2.49,2.49,0,0,0-1.9.65c-.9.92-1.28,2.86-1.75,4.11a6.17,6.17,0,0,1-.43,1Zm7.15-11.83a7.94,7.94,0,0,0-1.6-.15c-1.69,0-3.12.64-3.12,2.46,0,1.59,1.41,2.51,3.27,2.51.57,0,1.12,0,1.45,0Z" style="fill:#fff"/><path d="M138.71,31.71v5.52h6.39V31.71h1.72v13.2H145.1V38.72h-6.39v6.19H137V31.71Z" style="fill:#fff"/><path d="M151.91,40.76l-1.37,4.15h-1.76l4.48-13.2h2.06l4.5,13.2H158l-1.41-4.15Zm4.33-1.33-1.3-3.8c-.29-.86-.48-1.65-.68-2.41h0c-.2.78-.41,1.59-.67,2.39l-1.29,3.82Z" style="fill:#fff"/><path d="M160.56,44.91a8.19,8.19,0,0,0,.53-1.19c.57-1.51.92-3.35,2-4.43a2.56,2.56,0,0,1,1.1-.66v-.06a3.27,3.27,0,0,1-2.92-3.25,3.38,3.38,0,0,1,1.21-2.69,6,6,0,0,1,3.78-1,16.46,16.46,0,0,1,3.15.28v13h-1.7V39.19h-1.25a2.49,2.49,0,0,0-1.9.65c-.9.92-1.28,2.86-1.75,4.11a6.17,6.17,0,0,1-.43,1Zm7.15-11.83a7.94,7.94,0,0,0-1.6-.15c-1.69,0-3.12.64-3.12,2.46,0,1.59,1.41,2.51,3.27,2.51.57,0,1.12,0,1.45,0Z" style="fill:#fff"/><path d="M82.25,55.21v5.85h.52l4.53-5.85h2l-5,6c2.17.29,3,1.62,3.7,3.41a34.68,34.68,0,0,0,1.45,3.74H87.67a23,23,0,0,1-1.19-3.12c-.61-1.74-1.45-2.93-3.69-2.93h-.54v6H80.56V55.21Z" style="fill:#fff"/><path d="M102.08,61.67c0,4.54-2.76,7-6.13,7S90,65.92,90,61.92c0-4.19,2.6-6.93,6.13-6.93S102.08,57.75,102.08,61.67Zm-10.24.22c0,2.82,1.53,5.34,4.21,5.34s4.23-2.49,4.23-5.48c0-2.63-1.37-5.37-4.21-5.37S91.84,59,91.84,61.89Z" style="fill:#fff"/><path d="M115.36,62.61c-.1-1.84-.22-4-.2-5.7h-.06c-.45,1.55-1,3.19-1.66,5l-2.33,6.41h-1.3L107.68,62c-.63-1.86-1.16-3.56-1.53-5.13h0c0,1.65-.13,3.86-.25,5.84l-.35,5.66h-1.63l.92-13.2H107l2.26,6.38c.55,1.63,1,3.08,1.33,4.45h.06c.33-1.33.8-2.78,1.39-4.45l2.35-6.38h2.17l.82,13.2h-1.66Z" style="fill:#fff"/><path d="M129.51,55.21v13.2h-1.7V56.64h-6.13V68.41H120V55.21Z" style="fill:#fff"/><path d="M134.62,64.25l-1.37,4.16h-1.76L136,55.21H138l4.5,13.2h-1.82l-1.41-4.16ZM139,62.92l-1.29-3.8c-.3-.86-.49-1.64-.69-2.4h0c-.19.78-.41,1.58-.66,2.38L135,62.92Z" style="fill:#fff"/><path d="M146.17,55.21v5.52h6.39V55.21h1.72v13.2h-1.72V62.22h-6.39v6.19h-1.7V55.21Z" style="fill:#fff"/><path d="M158.84,55.21v5.56c0,2.09,0,3.82-.16,5.58l0,0c.67-1.37,1.49-2.8,2.45-4.37l4.27-6.79h1.7v13.2h-1.6V62.79c0-2.14,0-3.71.15-5.37l-.05,0a41.11,41.11,0,0,1-2.45,4.45l-4.13,6.56h-1.83V55.21Z" style="fill:#fff"/><path d="M168.92,68.41a8.85,8.85,0,0,0,.53-1.2c.57-1.51.92-3.35,2-4.42a2.58,2.58,0,0,1,1.1-.67v-.06a3.27,3.27,0,0,1-2.92-3.25,3.36,3.36,0,0,1,1.21-2.68,6,6,0,0,1,3.78-1,17.37,17.37,0,0,1,3.15.27v13h-1.7V62.69h-1.25a2.45,2.45,0,0,0-1.9.65c-.9.91-1.28,2.85-1.75,4.11a7.14,7.14,0,0,1-.43,1Zm7.15-11.83a7.74,7.74,0,0,0-1.6-.16c-1.69,0-3.12.65-3.12,2.47,0,1.59,1.41,2.51,3.27,2.51.57,0,1.12,0,1.45,0Z" style="fill:#fff"/></g></g></svg>