<svg xmlns="http://www.w3.org/2000/svg" viewBox="0 0 63.21 72.26"><g id="e39968af-7ef7-4d85-9df4-8cb032b57f94" data-name="Слой 2"><g id="f580510d-e9d2-453c-bc68-c68a91c439af" data-name="Слой 1"><path d="M62.09,55a2,2,0,0,1,.1-2.56,5.15,5.15,0,0,0,0-6,2.11,2.11,0,0,1,0-2.74,4.93,4.93,0,0,0,.4-5.39,5.13,5.13,0,0,0-5-2.93h-14L44,33.57a3.69,3.69,0,0,1,.1-.39,40.62,40.62,0,0,0,1.56-12.52A7.26,7.26,0,0,0,41,13.86a10.21,10.21,0,0,0-4.46-.57h-.3a1,1,0,0,0-1.2.94c-.26,1-.51,2-.73,2.93a28.71,28.71,0,0,1-7.07,13.64,14.55,14.55,0,0,1-6.11,4.1A1.73,1.73,0,0,1,18.83,34,5.29,5.29,0,0,0,13.61,31h0c-2.75,0-5.51,0-8.26,0H1.44C.23,31,0,31.2,0,32.39V71c0,1.22.68,1.22,1,1.22H2.61c3.81,0,7.76,0,11.63,0a4.94,4.94,0,0,0,4.35-2.57A1.9,1.9,0,0,1,21,68.76c1.53.53,3.06,1,4.6,1.55l1.89.62a21.39,21.39,0,0,0,6.75,1.28c5.71,0,12.47.07,19.26,0a5.14,5.14,0,0,0,5.22-4.76,9,9,0,0,0-.09-1.83c0-.35-.09-.71-.11-1.07l-.07-.91.85-.36c.1,0,.22-.1.35-.14A5.23,5.23,0,0,0,62.09,55ZM17.53,66.59a3.53,3.53,0,0,1-3.83,3.83H1.86V32.9l1.44-.07.56,0q4.89,0,9.79,0a3.52,3.52,0,0,1,3.88,3.84ZM53.75,54.72h4a3.47,3.47,0,1,1,0,6.93H53.73c-.26,0-1.11.07-1.13.89s.8.92,1,.94a3.46,3.46,0,1,1-.3,6.92H34.93a21,21,0,0,1-6.55-1.11l-3.45-1.15-4.09-1.36a2,2,0,0,1-1.49-2q0-11.28,0-22.55V38.84a1.76,1.76,0,0,1,1.41-1.94c3.23-.76,6.05-2.68,8.87-6a31.25,31.25,0,0,0,6.55-13.72c.05-.23.11-.45.18-.69l.31-1.19.9-.08a5.88,5.88,0,0,1,4.36,1.37,5.28,5.28,0,0,1,1.83,3.74,35.56,35.56,0,0,1-2,13.85,1.92,1.92,0,0,1-.18.39l-.41.83H36.28c-.45,0-1.21.12-1.21.91a.81.81,0,0,0,.22.6,1.39,1.39,0,0,0,1,.32h21.2a6.77,6.77,0,0,1,.78,0,3.46,3.46,0,0,1-.25,6.9c-.91,0-1.83,0-2.75,0H53.81c-.45,0-1.21.13-1.21.92s.76.91,1.21.91h3.88a3.47,3.47,0,1,1,0,6.92h-4c-.26,0-1.13.07-1.13.92S53.48,54.71,53.75,54.72Z" style="fill:#264369"/><path d="M9.68,61.66a.92.92,0,0,0-.91.9.94.94,0,0,0,.91.92h0a.89.89,0,0,0,.63-.27.87.87,0,0,0,.28-.63.92.92,0,0,0-.9-.92Z" style="fill:#264369"/><path d="M27.19,6.34a3.3,3.3,0,0,0-.7-.42l-.11-.06a1,1,0,0,0-.77.58.79.79,0,0,0,.15,1c.89,1,1.87,1.93,3,3a1,1,0,0,0,1.4.11A1,1,0,0,0,30,9.17C29.11,8.21,28.16,7.23,27.19,6.34Z" style="fill:#264369"/><path d="M39.46,4c0,.44,0,.89,0,1.33,0,.65.37,1.07.91,1.07s.91-.42.91-1.07c0-.44,0-.89,0-1.33,0-.77,0-1.57,0-2.38S41.1.27,40.64,0h-.55c-.47.27-.72.67-.66,1.58S39.47,3.19,39.46,4Z" style="fill:#264369"/><path d="M54.37,5.88l-.13,0-.37.14c-1,.91-2.24,2.11-3.42,3.41a.89.89,0,0,0,1.19,1.25c1.14-1,2.28-2.17,3.47-3.47.07-.07.27-.29,0-.83A.92.92,0,0,0,54.37,5.88Z" style="fill:#264369"/></g></g></svg>