<svg xmlns="http://www.w3.org/2000/svg" viewBox="0 0 83.68 79.41"><g id="acb91433-d047-46a5-a17e-119c657c7915" data-name="Слой 2"><g id="a0fb940a-4439-43f2-9fbb-1594044421ea" data-name="Слой 1"><path d="M24.78,43.15a1.09,1.09,0,0,0,.88.48l.12-.07a4.3,4.3,0,0,0,.71-.54c1.3-1.36,2.58-2.73,3.86-4.1l3.47-3.73,6.6-7.07a1.35,1.35,0,0,0,.42-.9.85.85,0,0,0-.3-.58.81.81,0,0,0-.54-.22,1.42,1.42,0,0,0-.9.45l-.2.21-2.56,2.74-11.15,12a2.42,2.42,0,0,0-.45.6A.78.78,0,0,0,24.78,43.15Z" style="fill:#de912f"/><path d="M76.21,6.36a3.11,3.11,0,0,0-.64.41L53,23.91c-1.52,1.15-2.4,1.15-3.92,0L26.33,6.68a1.7,1.7,0,0,0-.95-.4.86.86,0,0,0-.82.92,1.49,1.49,0,0,0,.62.89l3.56,2.7c6.4,4.86,13,9.9,19.57,14.81a7.52,7.52,0,0,0,1.8.87l.49.2,0-.07H51a5,5,0,0,0,3-1.17q7.52-5.73,15-11.43l7.53-5.71a3.8,3.8,0,0,0,.66-.58.8.8,0,0,0,.05-1.07A.8.8,0,0,0,76.21,6.36Z" style="fill:#de912f"/><path d="M83.68,46.26V3.59c0-2.38-1.2-3.59-3.56-3.59H21.91c-2.4,0-3.56,1.17-3.57,3.58V20.43l-.88-1a33.33,33.33,0,0,1-2.29-3.1l-.29-.43a3.7,3.7,0,0,0-5.37-1.23c-1.26.73-2.5,1.49-3.75,2.24l-1.42.86A8,8,0,0,0,.48,23.24Q.3,24.14.15,25L0,25.86v3.43l.08.45c.06.36.12.72.17,1.08A38,38,0,0,0,6.17,45.45c4.71,7.37,11,14.41,19.33,21.52A58.06,58.06,0,0,0,41.6,77.22a25.93,25.93,0,0,0,13,2,9.05,9.05,0,0,0,7.51-4.82c.53-1,1.13-2,1.7-2.89q.48-.76.93-1.53c1.29-2.19.87-4.09-1.22-5.49q-6.36-4.26-12.72-8.48a3.75,3.75,0,0,0-5.51.92l-1.39,1.79-2.06,2.65A1.89,1.89,0,0,1,39,62c-.9-.49-2-1.09-3-1.76A60.06,60.06,0,0,1,25.45,51.1a3.4,3.4,0,0,1-.22-.3l-.69-1H80.09C82.51,49.82,83.68,48.66,83.68,46.26ZM25.69,54a52.58,52.58,0,0,0,12.37,9.61,3.75,3.75,0,0,0,4.41-.2,4.76,4.76,0,0,0,.81-.87c.62-.78,1.24-1.57,1.85-2.36l1.61-2.07a2,2,0,0,1,3-.51q6.41,4.25,12.79,8.52A1.92,1.92,0,0,1,63.22,69c-1,1.76-2.09,3.5-3.15,5.25a5.83,5.83,0,0,1-4,2.88c-.92.16-1.85.29-2.77.42L52,77.72h-.09a29.64,29.64,0,0,1-12.4-3.4,63.81,63.81,0,0,1-14.23-9.94C17.71,57.62,12.2,51.42,8,44.89A36.15,36.15,0,0,1,2.08,30.77a19.06,19.06,0,0,1,.27-7.58,6.07,6.07,0,0,1,2.88-3.85L6,18.91q2.22-1.35,4.45-2.67a1.94,1.94,0,0,1,3,.69l8.48,12.72c.82,1.24.66,2.13-.54,3.08-.79.62-1.58,1.24-2.38,1.85L17,36.08c-1.91,1.5-2.26,3.14-1.11,5.34A52,52,0,0,0,25.69,54ZM69.13,48H23.65a1.88,1.88,0,0,1-1.73-.86c-.51-.75-1-1.51-1.52-2.27-1-1.46-1.95-2.92-2.9-4.41a1.94,1.94,0,0,1,.61-2.93l2-1.53,2.4-1.87a3.74,3.74,0,0,0,.9-5.52c-.36-.54-.72-1.09-1.09-1.63-.57-.85-1.14-1.71-1.7-2.58a2.55,2.55,0,0,1-.41-1.32q0-9.42,0-18.82V3.5c0-1.29.41-1.68,1.74-1.68H80c1.56,0,1.92.36,1.92,1.92V46.07c0,1.57-.36,1.94-1.91,1.94Z" style="fill:#de912f"/><path d="M63.86,30.45,75.69,43.13c.37.4.93.76,1.48.27a.76.76,0,0,0,.28-.56,1.46,1.46,0,0,0-.46-1l-1.86-2L72,36.51Q67.57,31.76,63.12,27a4.83,4.83,0,0,0-.78-.62l-.23-.16-.18.13a2.49,2.49,0,0,0-.62.56c-.15.23-.25.52.35,1.17Z" style="fill:#de912f"/></g></g></svg>