<svg xmlns="http://www.w3.org/2000/svg" viewBox="0 0 28.79 28.78"><g id="Слой_2" data-name="Слой 2"><g id="Слой_1-2" data-name="Слой 1"><path d="M10.85,0h7.2l.47,0C19.7.12,20.88.12,22,.3a7.3,7.3,0,0,1,6.36,6,17.26,17.26,0,0,1,.34,3.51c0,.36,0,.73.05,1.09v7.2c0,.33-.05.67-.05,1a16.68,16.68,0,0,1-.35,3.52A7.33,7.33,0,0,1,23,28.3a14.45,14.45,0,0,1-3.7.43c-2.82,0-5.64,0-8.46.05a19.5,19.5,0,0,1-4.31-.34,7.34,7.34,0,0,1-6-5.73A18.78,18.78,0,0,1,0,18.16q0-3.77,0-7.53A21.59,21.59,0,0,1,.34,6.46,7.5,7.5,0,0,1,6.46.33,21.89,21.89,0,0,1,10.16,0C10.39,0,10.62,0,10.85,0ZM26.14,14h0c0-1.07,0-2.14,0-3.2A33.79,33.79,0,0,0,25.9,7a4.5,4.5,0,0,0-3.54-3.95,11.64,11.64,0,0,0-2.49-.39c-2-.08-4-.09-6-.1-1.42,0-2.85,0-4.27,0a13.39,13.39,0,0,0-3.15.34A4.53,4.53,0,0,0,3.08,6.05,12.64,12.64,0,0,0,2.55,10c0,3,0,6.05,0,9.08a15.11,15.11,0,0,0,.28,2.76,4.77,4.77,0,0,0,3.71,4,13.33,13.33,0,0,0,3.21.35c2.73,0,5.47.06,8.2,0a29.29,29.29,0,0,0,3.75-.27,4.7,4.7,0,0,0,4.13-3.85,13.86,13.86,0,0,0,.3-2.56C26.18,17.65,26.14,15.82,26.14,14Z" style="fill:#fff"/><path d="M14.39,7A7.39,7.39,0,1,1,7,14.39,7.38,7.38,0,0,1,14.39,7Zm4.8,7.38a4.79,4.79,0,1,0-4.78,4.8A4.77,4.77,0,0,0,19.19,14.38Z" style="fill:#fff"/><path d="M22.07,5a1.72,1.72,0,1,1,0,3.44,1.72,1.72,0,1,1,0-3.44Z" style="fill:#fff"/></g></g></svg>