<svg xmlns="http://www.w3.org/2000/svg" width="69.22" height="72.48" viewBox="0 0 69.22 72.48"><g id="Слой_2" data-name="Слой 2"><g id="Слой_1-2" data-name="Слой 1">
<path d="M32.19,59l6.4-4.72a.55.55,0,0,0,.19-.6L36.33,46a.51.51,0,0,0-.49-.36h-7.9a.53.53,0,0,0-.5.36L25,53.67l0,.18a.52.52,0,0,0,.21.41L31.58,59a.51.51,0,0,0,.61,0" style="fill:#4E4E4E"/>
<path d="M33.56,62.82l0,.16L36.5,72.1a.53.53,0,0,0,.51.38h9.44A.55.55,0,0,0,47,72.1L49.87,63a.54.54,0,0,0-.18-.61l-7.64-5.65a.56.56,0,0,0-.64,0l-7.63,5.63a.53.53,0,0,0-.22.46" style="fill:#4E4E4E"/>
<path d="M22.13,35.28h-7.9a.51.51,0,0,0-.49.36l-2.45,7.64,0,.18a.52.52,0,0,0,.21.41l6.4,4.73a.53.53,0,0,0,.61,0l6.39-4.72a.54.54,0,0,0,.19-.59l-2.44-7.64a.53.53,0,0,0-.5-.37" style="fill:#4E4E4E"/>
<path d="M8.77,46.84a.5.5,0,0,0-.61,0L.88,52.21a.55.55,0,0,0-.21.44l0,.15,2.77,8.7a.54.54,0,0,0,.49.36h9a.5.5,0,0,0,.49-.36l2.79-8.7a.54.54,0,0,0-.19-.59Z" style="fill:#4E4E4E"/>
<path d="M16.71,27.12a.52.52,0,0,0,.21.41l6.39,4.72a.5.5,0,0,0,.61,0l6.4-4.72a.54.54,0,0,0,.18-.59L28.06,19.3a.5.5,0,0,0-.49-.37h-7.9a.53.53,0,0,0-.5.37l-2.44,7.64Z" style="fill:#4E4E4E"/><path d="M8.1,11.63a.48.48,0,0,0-.6,0L.22,17a.51.51,0,0,0-.22.44l0,.15,2.78,8.7a.51.51,0,0,0,.48.36h9a.53.53,0,0,0,.49-.35l2.79-8.71a.53.53,0,0,0-.19-.58Z" style="fill:#4E4E4E"/><path d="M34,27.74l6.4,4.72a.5.5,0,0,0,.61,0l6.39-4.72a.54.54,0,0,0,.2-.59l-2.45-7.64a.51.51,0,0,0-.49-.37h-7.9a.53.53,0,0,0-.5.37l-2.45,7.64,0,.18a.55.55,0,0,0,.21.41" style="fill:#4E4E4E"/><path d="M40.35.1,33.07,5.48a.51.51,0,0,0-.21.44l0,.14,2.78,8.7a.5.5,0,0,0,.49.36h9a.53.53,0,0,0,.49-.36l2.79-8.7a.57.57,0,0,0-.19-.59L41,.1a.53.53,0,0,0-.61,0" style="fill:#4E4E4E"/><path d="M45.32,49.07a.54.54,0,0,0,.62,0l6.39-4.72a.53.53,0,0,0,.19-.59l-2.44-7.65a.53.53,0,0,0-.49-.36h-7.9a.53.53,0,0,0-.5.36l-2.44,7.64,0,.18a.53.53,0,0,0,.22.41Z" style="fill:#4E4E4E"/><path d="M56.92,43.34h9a.5.5,0,0,0,.49-.36l2.78-8.7A.52.52,0,0,0,69,33.7l-7.28-5.38a.5.5,0,0,0-.6,0L53.83,33.7a.51.51,0,0,0-.2.43l0,.15L56.43,43a.5.5,0,0,0,.49.36" style="fill:#4E4E4E"/></g></g></svg>