<svg xmlns="http://www.w3.org/2000/svg" viewBox="0 0 35 18.58"><g id="Слой_2" data-name="Слой 2"><g id="Слой_1-2" data-name="Слой 1"><path d="M35,18.43H26.31c-.68,0-1.35,0-2,0a1,1,0,0,1-.51-.19l-3.27-2.84v2.79a10.31,10.31,0,0,1-3.23.41A15,15,0,0,1,5.6,12.63a23.78,23.78,0,0,1-4-7.39C1,3.54.54,1.79,0,0H9.1c.29,1.21.52,2.42.87,3.58a6.78,6.78,0,0,0,2,3.08V2.06h-.83V0h9.25V7.34l.1.07a14.46,14.46,0,0,0,1.16-1.19,12.87,12.87,0,0,0,2.2-4.58c.14-.45.28-.91.39-1.37,0-.21.13-.27.34-.27H35L28,10.5l2.05,2.34,4.69,5.32.22.2ZM2.75,2.07a.37.37,0,0,0,0,.11,26.24,26.24,0,0,0,4,8.65,13.25,13.25,0,0,0,9,5.58c.85.12,1.71.1,2.66.14V10.91l.39.32c1.87,1.63,3.74,3.26,5.61,4.87a1,1,0,0,0,.56.25c1.7,0,3.39,0,5.08,0l.31,0-5-5.65,5.7-8.62c-1.74,0-3.4,0-5.06,0-.09,0-.23.15-.27.26-.34.87-.62,1.78-1,2.63a10,10,0,0,1-3.06,4,5,5,0,0,1-3.41,1V2.07H14.06V10C10,8.85,8.19,5.9,7.39,2.07Z" style="fill:#fff"/></g></g></svg>