<svg xmlns="http://www.w3.org/2000/svg" viewBox="0 0 22.81 22.8"><g id="b0e49d41-ca59-4a6d-8ed6-add691a5c51a" data-name="Слой 2"><g id="a370d80b-dfd7-47b1-bdb6-ebcf7c51f99b" data-name="Слой 1"><path d="M22.81,10.68v1.43a.53.53,0,0,0,0,.17,11,11,0,0,1-1.85,5.39,11.26,11.26,0,0,1-7.53,5c-.42.07-.85.11-1.28.17H10.69l-.19,0c-.68-.11-1.36-.17-2-.34A11.34,11.34,0,0,1,0,12.23,10.74,10.74,0,0,1,2.62,4.15,11.16,11.16,0,0,1,14.44.4a11.3,11.3,0,0,1,8.19,9C22.72,9.86,22.75,10.27,22.81,10.68ZM11.4,16.29H17c.43,0,.56-.13.56-.56V7.07c0-.44-.13-.57-.57-.57H5.87c-.45,0-.57.13-.58.57v8.64c0,.46.12.58.59.58Z" style="fill:#de912f"/><path d="M6.12,15.45V7.83A1.41,1.41,0,0,1,6.3,8L11,12c.34.3.46.3.8,0l4.7-4c.05,0,.11-.08.18-.14v7.62Z" style="fill:#de912f"/><path d="M16,7.34,11.4,11.27,6.83,7.34Z" style="fill:#de912f"/></g></g></svg>