<svg xmlns="http://www.w3.org/2000/svg" viewBox="0 0 22.83 22.81"><g id="a8ad2e47-31d9-46c0-897f-603508d7fa4a" data-name="Слой 2"><g id="e96645b8-df6d-4eda-8aba-26eda99b0239" data-name="Слой 1"><path d="M22.83,10.74v1.33c0,.3-.06.59-.11.88a11.24,11.24,0,0,1-3.57,6.84,11.1,11.1,0,0,1-5.78,2.85c-.42.07-.85.11-1.27.17H10.76c-.43-.06-.85-.1-1.28-.17a11,11,0,0,1-7.3-4.59A11.09,11.09,0,0,1,.79,7.3,11.39,11.39,0,0,1,11,0a11.15,11.15,0,0,1,6.71,1.85,11.26,11.26,0,0,1,5,7.6C22.73,9.88,22.77,10.31,22.83,10.74Zm-8.36,6.62a3.24,3.24,0,0,0,1.37-.29A4.67,4.67,0,0,0,17.2,16a.51.51,0,0,0,0-.86l-1.95-1.95c-.32-.32-.56-.32-.89,0l-1,1.06a1,1,0,0,1-1.44.12,14.93,14.93,0,0,1-3.33-3.26,1,1,0,0,1,.11-1.51L9.76,8.46a.49.49,0,0,0,0-.79c-.68-.68-1.35-1.36-2-2a.48.48,0,0,0-.77,0c-.22.22-.44.43-.65.65a3,3,0,0,0-.85,2.56,5.78,5.78,0,0,0,.71,2,13.31,13.31,0,0,0,6.07,5.89A6,6,0,0,0,14.47,17.36Z" style="fill:#de912f"/></g></g></svg>