<svg xmlns="http://www.w3.org/2000/svg" viewBox="0 0 16.72 17.13"><g id="b4331408-6138-4fa3-86d9-f7fbbb1692a1" data-name="Слой 2"><g id="fc09819a-884c-454a-8f68-7359efb8ab78" data-name="Слой 1"><path d="M16.12,0a2.65,2.65,0,0,1,.4.24.66.66,0,0,1,.1.82,1.07,1.07,0,0,1-.13.21Q13.78,5.1,11.07,8.91a2.1,2.1,0,0,0-.41,1.28c0,1.64,0,3.28,0,4.92a.7.7,0,0,1-.55.8l-3,1.15a.75.75,0,0,1-.84-.12.85.85,0,0,1-.22-.65V10.74c0-.19,0-.38,0-.57a1.88,1.88,0,0,0-.39-1.25L.2,1.25a.75.75,0,0,1,0-1A2.23,2.23,0,0,1,.58,0ZM6.92,16.19l.18-.06,2.51-.95a.23.23,0,0,0,.19-.26c0-1.59,0-3.18,0-4.77a2.87,2.87,0,0,1,.55-1.72L15.59,1A1.16,1.16,0,0,1,15.7.88H1l.12.18C2.88,3.51,4.61,6,6.36,8.41a2.84,2.84,0,0,1,.56,1.76c0,1.94,0,3.87,0,5.81Z" style="fill:#f1f1f1"/></g></g></svg>