<svg xmlns="http://www.w3.org/2000/svg" viewBox="0 0 65.74 78.1"><g id="a807242d-3c32-4db0-a8f2-83d1a6838acc" data-name="Слой 2"><g id="eed9cdfd-51f4-4b02-b3ea-94b69451dea6" data-name="Слой 1"><path d="M52.7,75.4l3.18-3q3.54-3.31,7-6.65a8.62,8.62,0,0,0,2.8-6.39q0-21,0-42V14a3.33,3.33,0,0,0-3.59-3.55H55.4L55.28,10a.93.93,0,0,1,0-.24V3.92C55.24,1.28,54,0,51.33,0H4C1.23,0,0,1.24,0,4V63.79c0,.21,0,.43,0,.64a3.28,3.28,0,0,0,3.3,3.17h7.17v2.13c0,1.51,0,3,0,4.46a6.54,6.54,0,0,0,.09,1.28,3.51,3.51,0,0,0,2.58,2.62l34,0a2.53,2.53,0,0,1,.36-.12A11,11,0,0,0,52.7,75.4Zm-2.89.16-.23-1.16a1.59,1.59,0,0,1-.06-.36V72.4c0-2.18,0-4.36,0-6.54a2.82,2.82,0,0,1,2.79-3c2.23,0,4.5,0,6.7,0h3l.47.78Zm-39.35-61c0,12.33,0,24.88,0,37V65.65l-.66.07a4.23,4.23,0,0,1-.48,0H3.71c-1.3,0-1.82-.52-1.83-1.84,0-.5,0-1,0-1.51V4.1c0-.28,0-.57,0-.85A1.39,1.39,0,0,1,3.22,1.89a6.27,6.27,0,0,1,.75,0H51.9a1.42,1.42,0,0,1,1.47,1.45c0,1.59,0,3.17,0,4.8v2.37H41.82c-8.94,0-18.18,0-27.28,0a4,4,0,0,0-3,1.06A4.19,4.19,0,0,0,10.46,14.58Zm36.17,61.6c-.38,0-.73,0-1.09,0h-31c-1.73,0-2.15-.43-2.15-2.16V14.46c0-1.67.45-2.13,2.1-2.13H61.8c1.6,0,2.06.47,2.06,2.09V59c0,1.8-.23,2-2,2H59c-2.14,0-4.28,0-6.42,0a4.62,4.62,0,0,0-4.79,3.62,6.77,6.77,0,0,0-.15,1.71c0,2,0,4.1,0,6.14v3.63Z" style="fill:#264369"/></g></g></svg>