<svg xmlns="http://www.w3.org/2000/svg" viewBox="0 0 103.39 103.37"><g id="ba68b70b-ee04-467f-8900-8a90341d7c73" data-name="Слой 2"><g id="a3ab2704-d15c-45e6-8703-d6c757a13b20" data-name="Слой 1"><rect x="50.86" y="77.09" width="1.68" height="1.64" style="fill:#de912f"/><path d="M51.73,103.37a.69.69,0,0,0,.56-.3c1.3-1.64,2.54-3.28,3.84-5,.34-.47.69-.93,1-1.39l-1.44-1.07-1.81,2.28-1.36-.59V84.07H50.78v13.3l-.59.19-.27-.8h0l.18.83-.7.24-1.73-2.25-1.43,1.08,1,1.35c1.24,1.66,2.46,3.3,3.71,4.91a1,1,0,0,0,.77.45Z" style="fill:#de912f"/><rect x="50.85" y="24.55" width="1.67" height="1.67" style="fill:#de912f"/><polygon points="33.15 34.24 34.27 33.09 33.11 31.95 31.97 33.1 33.15 34.24" style="fill:#de912f"/><path d="M46.9,5.77l-.66.89,1.43,1.07,1.8-2.3L50.82,6V19.23h1.82V3.74l3.09,4,1.43-1.08-.84-1.13C55.17,4,54.06,2.5,52.91,1a5.63,5.63,0,0,0-.86-.81L51.79,0h-.26L51.4.08a1.42,1.42,0,0,0-.35.22C49.66,2.11,48.29,3.93,46.9,5.77Z" style="fill:#de912f"/><path d="M88.21,88.25a1,1,0,0,0,.27-.83c0-.49-.11-1-.19-1.51l-.91-6.28-1.76.25.63,5.06L75.37,74l-1.53,1.42L84.56,86.14l-4.63-.57-.25,1.79,1.7.24c2.15.3,4.19.58,6.26.81h0A.68.68,0,0,0,88.21,88.25Z" style="fill:#de912f"/><path d="M97.83,56.28c1.56-1.16,3.08-2.3,4.59-3.46a5.6,5.6,0,0,0,.77-.82c.07-.07.13-.15.2-.23v-.31l-.6-.52c-.63-.55-1.28-1.11-1.93-1.62-1.1-.85-2.22-1.68-3.35-2.52l-.81-.6-1.07,1.44L98,49.43l-.6,1.36H84.15V52.6H99.66l-4,3.09,1.08,1.43Z" style="fill:#de912f"/><polygon points="71.3 70.32 70.23 69.08 69.17 70.15 70.23 71.3 71.3 70.32" style="fill:#de912f"/><path d="M86.19,18.6l-.56,4.85,1.75.24c0-.22.07-.43.1-.65l.28-1.95c.24-1.65.49-3.35.68-5a1.21,1.21,0,0,0-.21-1,.76.76,0,0,0-.61-.16c-2.06.22-4.08.5-6.21.8L79.67,16l.26,1.79,5.1-.63L74.08,28l1.33,1.37Z" style="fill:#de912f"/><rect x="77.14" y="50.8" width="1.66" height="1.7" style="fill:#de912f"/><polygon points="33.2 69.25 32.03 70.32 33.1 71.42 34.22 70.27 33.2 69.25" style="fill:#de912f"/><rect x="24.6" y="50.8" width="1.67" height="1.69" style="fill:#de912f"/><path d="M15,16.12c.16,1.35.36,2.7.55,4.05L16,23.7l1.75-.26-.6-5L28,29.37,29.45,28,18.58,17.14l4.91.61L23.72,16,22,15.73c-2-.29-4-.58-5.94-.83a1.18,1.18,0,0,0-.93.19A1.26,1.26,0,0,0,15,16.12Z" style="fill:#de912f"/><path d="M5.3,47.23C3.66,48.46,2.06,49.65.48,50.88a1.06,1.06,0,0,0-.48.79,1,1,0,0,0,.44.75C2,53.66,3.67,54.87,5.32,56.1l1.37,1,1.08-1.44L5.46,53.92,6,52.53H19.22V50.7H3.79l4-3.07L6.69,46.2Z" style="fill:#de912f"/><polygon points="71.45 33.09 70.28 31.93 69.11 33.08 70.26 34.25 71.45 33.09" style="fill:#de912f"/><path d="M17.18,84.8l.59-4.93L16,79.63c-.07.58-.16,1.15-.24,1.72-.3,2.15-.58,4.17-.81,6.24a.75.75,0,0,0,.17.6,1,1,0,0,0,.8.23c.94-.07,1.9-.22,2.82-.35l.79-.12L23,87.44l.74-.11-.26-1.76-5,.63L29.35,75.29,28,73.88Z" style="fill:#de912f"/><path d="M69.21,41.84c-5-3-10.47-6.25-16.61-10a1.49,1.49,0,0,0-1.79,0c-5.57,3.37-11.19,6.74-16.7,10a1.54,1.54,0,0,0-.85,1.53q0,8.25,0,16.51a1.47,1.47,0,0,0,.8,1.46q8.41,5,16.79,10.07a1.43,1.43,0,0,0,1.7,0q8.37-5.07,16.78-10.08A1.43,1.43,0,0,0,70.14,60c0-2,0-3.93,0-5.89V49.41c0-2,0-3.92,0-5.88A1.68,1.68,0,0,0,69.21,41.84Zm-31.76.22.53-.37,3.56-2.13c3-1.81,6-3.61,9-5.43a2,2,0,0,1,2.36,0c1,.66,2.1,1.29,3.21,2l2.59,1.55L48,44.05c-1.35.82-2.71,1.64-4.09,2.42a2.15,2.15,0,0,1-1.05.26,1.75,1.75,0,0,1-.85-.2c-1.19-.66-2.34-1.35-3.56-2.09L36.11,43ZM50.79,69.12l-1.58-.8c-.22-.11-.41-.2-.58-.3l-1.7-1q-5.35-3.19-10.69-6.43a2.36,2.36,0,0,1-1.14-1.76c0-3.36,0-6.77,0-10.08V46.5a1.84,1.84,0,0,1,.07-.44l.32-1.33,10.9,6.53c1.13.67,2.27,1.35,3.38,2.05a2.07,2.07,0,0,1,1,1.54c0,3.42,0,6.85,0,10.37ZM51.69,52a2.31,2.31,0,0,1-1.24-.41c-1-.65-2.06-1.27-3.16-1.92l-2.58-1.54,2.36-1.43L49.9,45l2.7-1.61c2.23-1.34,4.46-2.67,6.68-4a2,2,0,0,1,2.37,0c1,.66,2.1,1.28,3.19,1.93l2.48,1.49-1.37,1-.49.33-3.54,2.12q-4.52,2.7-9,5.42A2.36,2.36,0,0,1,51.69,52Zm16.62,6.59a2.29,2.29,0,0,1-.91,1.79c-3.66,2.24-7.34,4.44-11,6.64l-2,1.18a2,2,0,0,1-.41.18l-1.15.44-.17-1.29a3.44,3.44,0,0,1-.06-.53V65.4c0-3.42,0-6.84,0-10.27a2.16,2.16,0,0,1,.88-1.72c3.8-2.32,7.63-4.6,11.45-6.89l1.73-1a1.07,1.07,0,0,1,.52-.15l.85-.1.21,1a3.68,3.68,0,0,1,.06.57v1.5C68.33,51.76,68.34,55.2,68.31,58.63Z" style="fill:#de912f"/></g></g></svg>